# xmcd
#
# Track frame offsets:
#	150
#	20378
#	32352
#	44722
#	57315
#	69578
#	85523
#	94300
#	105335
#	124700
#	137526
#	152426
#	168551
#	182368
#	205871
#
# Disc length: 2877 seconds
#
# Revision: 1
# Processed by: cddbd v1.5PL3 Copyright (c) Steve Scherf et al.
# Submitted via: audiograbber 1.82.01
#
DISCID=b80b3b0f
DTITLE=Andy Lee and Tennessee Rain - I don't wanna be lonely tonight
DYEAR=2001
DGENRE=Rock and Roll
TTITLE0=I Don't Wanna Be Lonely Tonight
TTITLE1=The House Is Rockin'
TTITLE2=Gotta Lotta That
TTITLE3=Rock Piano Rock
TTITLE4=I Need Your Love
TTITLE5=Hillbilly Highway
TTITLE6=Say Mama
TTITLE7=What Am I Searchin' For Now
TTITLE8=I Want A Woman
TTITLE9=Hey Baby
TTITLE10=Your Lovin' Ways
TTITLE11=Lonely Night
TTITLE12=Why You Been Gone So Long
TTITLE13=Long White Cadillac
TTITLE14=Am I To Be The One (Bonus)
EXTD=
EXTT0=
EXTT1=
EXTT2=
EXTT3=
EXTT4=
EXTT5=
EXTT6=
EXTT7=
EXTT8=
EXTT9=
EXTT10=
EXTT11=
EXTT12=
EXTT13=
EXTT14=
PLAYORDER=
